<?xml version="1.0" encoding="utf-8"?>
<!-- Generator: Adobe Illustrator 23.0.0, SVG Export Plug-In . SVG Version: 6.00 Build 0)  -->
<svg version="1.1" id="Layer_1" xmlns="http://www.w3.org/2000/svg" xmlns:xlink="http://www.w3.org/1999/xlink" x="0px" y="0px"
	 viewBox="0 0 314 56" style="enable-background:new 0 0 314 56;" xml:space="preserve">
<style type="text/css">
	.st0{fill:#2399BC;}
	.st1{fill:#9DCD72;}
	.st2{fill:#808184;}
</style>
<g>
	<path class="st0" d="M19.73,5.26c7.31,0,13.31,2.12,18.01,6.36c4.7,4.24,7.05,9.75,7.05,16.51s-2.35,12.28-7.05,16.54
		c-4.7,4.26-10.7,6.39-18.01,6.39H3.61V5.26H19.73z M14.77,42.59h4.96c4.26,0,7.61-1.3,10.05-3.92c2.44-2.61,3.65-6.11,3.65-10.51
		c0-4.39-1.22-7.9-3.65-10.51c-2.44-2.61-5.79-3.92-10.05-3.92h-4.96V42.59z"/>
	<path class="st0" d="M52.13,46.37c-3.68-3.44-5.51-7.96-5.51-13.57c0-5.61,1.83-10.1,5.48-13.47s8.18-5.06,13.57-5.06
		c5.39,0,9.91,1.69,13.54,5.06c3.63,3.37,5.45,7.86,5.45,13.47c0,5.61-1.81,10.14-5.42,13.57c-3.61,3.44-8.11,5.16-13.51,5.16
		C60.34,51.53,55.8,49.81,52.13,46.37z M71.08,39.65c1.48-1.57,2.22-3.83,2.22-6.79c0-2.96-0.76-5.21-2.28-6.75
		c-1.52-1.54-3.33-2.32-5.42-2.32c-2.09,0-3.88,0.77-5.38,2.32c-1.5,1.54-2.25,3.8-2.25,6.75c0,2.96,0.77,5.22,2.32,6.79
		c1.54,1.57,3.36,2.35,5.45,2.35C67.82,42,69.6,41.22,71.08,39.65z"/>
	<path class="st0" d="M91.6,46.44c-3.37-3.39-5.06-7.92-5.06-13.57c0-5.65,1.69-10.17,5.06-13.54c3.37-3.37,7.73-5.06,13.08-5.06
		c4.44,0,8.2,1.1,11.29,3.3c3.09,2.2,5.13,5.34,6.13,9.43h-12.07c-1.04-2.17-2.75-3.26-5.12-3.26c-2.37,0-4.13,0.84-5.29,2.51
		c-1.15,1.67-1.73,3.88-1.73,6.62s0.58,4.95,1.73,6.62c1.15,1.68,2.84,2.51,5.06,2.51c1.39,0,2.48-0.24,3.26-0.72
		c0.78-0.48,1.48-1.33,2.09-2.54h12.07c-1,3.92-3.07,7.03-6.2,9.33c-3.13,2.31-6.87,3.46-11.22,3.46
		C99.34,51.53,94.98,49.83,91.6,46.44z"/>
	<path class="st0" d="M141.23,41.61h3.98v9.46h-5.68c-4.09,0-7.25-0.9-9.49-2.71c-2.24-1.8-3.36-4.9-3.36-9.3V23.92h-3.39v-9.27
		h3.39V5.78h11.16v8.88h7.31v9.27h-7.31v15.14C137.84,40.76,138.97,41.61,141.23,41.61z"/>
	<path class="st0" d="M153.14,46.37c-3.68-3.44-5.51-7.96-5.51-13.57c0-5.61,1.83-10.1,5.48-13.47s8.18-5.06,13.57-5.06
		c5.39,0,9.91,1.69,13.54,5.06c3.63,3.37,5.45,7.86,5.45,13.47c0,5.61-1.81,10.14-5.42,13.57c-3.61,3.44-8.11,5.16-13.51,5.16
		C161.35,51.53,156.81,49.81,153.14,46.37z M172.1,39.65c1.48-1.57,2.22-3.83,2.22-6.79c0-2.96-0.76-5.21-2.28-6.75
		c-1.52-1.54-3.33-2.32-5.42-2.32c-2.09,0-3.88,0.77-5.38,2.32c-1.5,1.54-2.25,3.8-2.25,6.75c0,2.96,0.77,5.22,2.32,6.79
		c1.54,1.57,3.36,2.35,5.45,2.35C168.83,42,170.62,41.22,172.1,39.65z"/>
	<path class="st0" d="M201.39,14.66v6.79c2.61-4.78,6.09-7.18,10.44-7.18v11.35h-2.74c-2.57,0-4.49,0.61-5.77,1.83
		c-1.28,1.22-1.92,3.35-1.92,6.39v17.23h-11.16V14.66H201.39z"/>
	<path class="st1" d="M268.48,5.26v45.81h-11.16V25.23l-10.64,25.84h-8.29l-10.64-25.84v25.84H216.6V5.26h12.79l13.18,31.58
		l13.12-31.58H268.48z"/>
	<path class="st1" d="M291.12,51.53c-5.31,0-9.66-1.71-13.05-5.12c-3.39-3.41-5.09-7.95-5.09-13.61c0-5.65,1.69-10.16,5.06-13.51
		c3.37-3.35,7.73-5.02,13.08-5.02c5.35,0,9.79,1.65,13.31,4.96c3.52,3.31,5.29,7.9,5.29,13.77c0,1.26-0.09,2.44-0.26,3.52H284.4
		c0.22,1.61,0.94,2.93,2.15,3.95c1.22,1.02,2.53,1.53,3.95,1.53c1.41,0,2.47-0.14,3.16-0.42c0.7-0.28,1.21-0.57,1.53-0.85
		c0.33-0.28,0.75-0.75,1.27-1.4h12.07c-1.04,3.65-3.13,6.6-6.26,8.84C299.15,50.41,295.43,51.53,291.12,51.53z M295.88,25.39
		c-1.31-1.07-2.85-1.6-4.63-1.6c-1.78,0-3.29,0.53-4.5,1.6c-1.22,1.07-1.98,2.45-2.28,4.14h13.64
		C297.93,27.84,297.19,26.46,295.88,25.39z"/>
</g>
</svg>
